<svg id="Layer_1" data-name="Layer 1" xmlns="http://www.w3.org/2000/svg" viewBox="0 0 132.79 36.01"><defs><style>.cls-1{fill:#fff;}.cls-2{fill:#1c203c;}</style></defs><title>Artboard 1</title><g id="Layer_2" data-name="Layer 2"><g id="Layer_1-2" data-name="Layer 1-2"><g id="_Group_" data-name=" Group "><path id="_Path_" data-name=" Path " class="cls-1" d="M132.78,9.08v-1a14.09,14.09,0,0,0-.2-2.15,7,7,0,0,0-.67-2,6.9,6.9,0,0,0-3-3,7.17,7.17,0,0,0-2-.68A14.15,14.15,0,0,0,124.7,0H8.09A15.64,15.64,0,0,0,5.93.21a7.39,7.39,0,0,0-2,.68A6.76,6.76,0,0,0,2.15,2.15,7,7,0,0,0,.21,5.89,13.54,13.54,0,0,0,0,8.09V27.94a14.08,14.08,0,0,0,.19,2.15,7,7,0,0,0,3.68,5,7.39,7.39,0,0,0,2,.68A15,15,0,0,0,8.09,36H124.7a14.08,14.08,0,0,0,2.15-.19,7.17,7.17,0,0,0,2.05-.68,7,7,0,0,0,3.68-5,14.09,14.09,0,0,0,.2-2.15V10.25Q132.79,9.66,132.78,9.08Z"/><path id="_Path_2" data-name=" Path 2" class="cls-1" d="M132.13,25.76v2.18a14.21,14.21,0,0,1-.19,2.06,6.68,6.68,0,0,1-.6,1.85,6.4,6.4,0,0,1-1.15,1.58,6.31,6.31,0,0,1-1.57,1.14,6.47,6.47,0,0,1-1.86.62,13.39,13.39,0,0,1-2,.18H8.1A14.79,14.79,0,0,1,6,35.16a6.47,6.47,0,0,1-1.86-.62,6.27,6.27,0,0,1-2.72-2.72A6.85,6.85,0,0,1,.86,30,14.07,14.07,0,0,1,.68,28V8.1a14.07,14.07,0,0,1,.18-2,6.45,6.45,0,0,1,.61-1.86A6.11,6.11,0,0,1,2.62,2.62,6.35,6.35,0,0,1,4.19,1.47,6.44,6.44,0,0,1,6,.86,14.75,14.75,0,0,1,8.1.68H124.68a14.07,14.07,0,0,1,2,.18,6.77,6.77,0,0,1,1.86.61,6.07,6.07,0,0,1,1.57,1.14,6.35,6.35,0,0,1,1.15,1.57,6.51,6.51,0,0,1,.61,1.87,13.41,13.41,0,0,1,.19,2V25.76Z"/></g><path id="_Path_3" data-name=" Path 3" class="cls-1" d="M132.13,25.76v2.18a14.21,14.21,0,0,1-.19,2.06,6.68,6.68,0,0,1-.6,1.85,6.4,6.4,0,0,1-1.15,1.58,6.31,6.31,0,0,1-1.57,1.14,6.47,6.47,0,0,1-1.86.62,13.39,13.39,0,0,1-2,.18H8.1A14.79,14.79,0,0,1,6,35.16a6.47,6.47,0,0,1-1.86-.62,6.27,6.27,0,0,1-2.72-2.72A6.85,6.85,0,0,1,.86,30,14.07,14.07,0,0,1,.68,28V8.1a14.07,14.07,0,0,1,.18-2,6.45,6.45,0,0,1,.61-1.86A6.11,6.11,0,0,1,2.62,2.62,6.35,6.35,0,0,1,4.19,1.47,6.44,6.44,0,0,1,6,.86,14.75,14.75,0,0,1,8.1.68H124.68a14.07,14.07,0,0,1,2,.18,6.77,6.77,0,0,1,1.86.61,6.07,6.07,0,0,1,1.57,1.14,6.35,6.35,0,0,1,1.15,1.57,6.51,6.51,0,0,1,.61,1.87,13.41,13.41,0,0,1,.19,2V25.76Z"/></g></g><g id="Logos"><g id="Logo_Horizontal_1A" data-name="Logo – Horizontal 1A"><g id="Logo"><path id="path3721" class="cls-2" d="M45.67,16.92v1.36a.3.3,0,0,1-.27.27H43.7a.15.15,0,0,0-.14.13v7.21a.3.3,0,0,1-.27.27H41.93a.29.29,0,0,1-.27-.27V18.68a.15.15,0,0,0-.14-.13h-1.7a.3.3,0,0,1-.27-.27V16.92a.29.29,0,0,1,.27-.27H45.4A.29.29,0,0,1,45.67,16.92Zm7.47-.27H51.78a.29.29,0,0,0-.27.27v6.39c0,.61-.47,1.08-1.32,1.08s-1.29-.47-1.29-1.08V16.92a.29.29,0,0,0-.28-.27H47.26a.29.29,0,0,0-.27.27v6.39a3.22,3.22,0,0,0,6.42,0V16.92a.28.28,0,0,0-.27-.27Zm7.68,0H59.46a.29.29,0,0,0-.27.27V22c0,.07-.1.11-.13,0l-1.87-5.17a.32.32,0,0,0-.34-.23H55.22a.29.29,0,0,0-.28.27v9a.3.3,0,0,0,.28.27h1.35a.3.3,0,0,0,.28-.27V21.2a.07.07,0,0,1,.13,0l1.84,4.75a.35.35,0,0,0,.37.24h1.6a.3.3,0,0,0,.27-.27v-9A.24.24,0,0,0,60.82,16.65Zm7,7.61H64.63a.15.15,0,0,1-.14-.14V22.49a.15.15,0,0,1,.14-.14h3.06a.29.29,0,0,0,.27-.27V20.72a.3.3,0,0,0-.27-.27H64.63a.15.15,0,0,1-.14-.13V18.68a.15.15,0,0,1,.14-.13h3.16a.3.3,0,0,0,.27-.27V16.92a.29.29,0,0,0-.27-.27H62.86a.29.29,0,0,0-.27.27v9a.3.3,0,0,0,.27.27h5a.3.3,0,0,0,.27-.27V24.53A.29.29,0,0,0,67.86,24.26ZM100.38,4.07V25.14a1,1,0,0,1-1,1H75.91v5.78a1,1,0,0,1-1,1H33.43a1,1,0,0,1-1-1V10.87a1,1,0,0,1,1-1H73.87V4.07a1,1,0,0,1,1-1H99.36A1,1,0,0,1,100.38,4.07ZM73.87,11.89H34.62a.16.16,0,0,0-.17.17V30.75a.16.16,0,0,0,.17.17H73.7a.16.16,0,0,0,.17-.17ZM86,17.8a.3.3,0,0,0-.28-.27H84.61a.15.15,0,0,1-.14-.14V11.82a.15.15,0,0,1,.14-.14h1a.29.29,0,0,0,.27-.27V10.12a.3.3,0,0,0-.27-.27H81.41a.3.3,0,0,0-.27.27v1.29a.29.29,0,0,0,.27.27h1a.15.15,0,0,1,.14.14v5.57a.15.15,0,0,1-.14.14H81.28a.29.29,0,0,0-.27.27v1.29a.28.28,0,0,0,.27.27h4.48a.29.29,0,0,0,.28-.27Zm7.61-7.68a.3.3,0,0,0-.27-.27H92a.3.3,0,0,0-.28.27v5.1a.07.07,0,0,1-.13,0l-1.87-5.16a.31.31,0,0,0-.34-.24H87.8a.3.3,0,0,0-.27.27v9a.29.29,0,0,0,.27.27h1.36a.28.28,0,0,0,.27-.27V14.4c0-.06.11-.1.14,0l1.83,4.76a.37.37,0,0,0,.38.23h1.6a.29.29,0,0,0,.27-.27Z"/></g></g></g></svg>