<svg xmlns="http://www.w3.org/2000/svg" xmlns:xlink="http://www.w3.org/1999/xlink" viewBox="-206 -319 133 34"> <defs> <style> .cls-1 { clip-path: url(#clip-subscribe_on-stitcher_133x34); } .cls-2 { fill: #777878; } .cls-3 { fill: #fff; } .cls-4 { fill: gray; } .cls-4, .cls-5 { stroke: rgba(0,0,0,0); } .cls-6 { fill-rule: evenodd; fill: url(#linear-gradient); } .cls-7 { fill: #fbc723; } .cls-8 { fill: #ef2e2a; } .cls-9 { fill: #f78d1f; } .cls-10 { fill: #459cdc; } .cls-11 { fill: #adda1e; } </style> <linearGradient id="linear-gradient" x1="0.5" x2="0.5" y2="1" gradientUnits="objectBoundingBox"> <stop offset="0" stop-color="#646464"></stop> <stop offset="1"></stop> </linearGradient> <clipPath id="clip-subscribe_on-stitcher_133x34"> <rect x="-206" y="-319" width="133" height="34"></rect> </clipPath> </defs> <g id="subscribe_on-stitcher_133x34" class="cls-1"> <g id="badge-blank_bg" transform="translate(-206 -319)"> <path id="XMLID_43_" class="cls-2" d="M132.989,9.076c0-.33,0-.66,0-.99a14.484,14.484,0,0,0-.2-2.151,7.161,7.161,0,0,0-.668-2.046A6.953,6.953,0,0,0,129.1.881,7.263,7.263,0,0,0,127.05.206,14.07,14.07,0,0,0,124.9.017c-.33,0-.665-.011-.994-.014-.387,0-.779,0-1.166,0H10.266c-.394,0-.784,0-1.178,0-.33,0-.657.009-.99.014a14.4,14.4,0,0,0-2.157.19A7.212,7.212,0,0,0,3.894.881,6.9,6.9,0,0,0,2.151,2.147,6.684,6.684,0,0,0,.882,3.889,7.079,7.079,0,0,0,.209,5.935,13.963,13.963,0,0,0,.016,8.086c-.01.33-.011.66-.016.99V24.928c.005.333.006.658.016.99A13.841,13.841,0,0,0,.209,28.07a7.059,7.059,0,0,0,.673,2.046A6.673,6.673,0,0,0,2.15,31.852a6.71,6.71,0,0,0,1.744,1.266,7.19,7.19,0,0,0,2.047.679,14.4,14.4,0,0,0,2.157.191c.333.007.66.011.99.011.394,0,.784,0,1.179,0H122.738c.387,0,.779,0,1.167,0,.329,0,.663,0,.994-.011a14.2,14.2,0,0,0,2.152-.191,7.271,7.271,0,0,0,2.055-.679,6.718,6.718,0,0,0,1.741-1.266,6.881,6.881,0,0,0,1.273-1.735,7.172,7.172,0,0,0,.668-2.046,14.485,14.485,0,0,0,.2-2.152c0-.332,0-.657,0-.99.01-.391.01-.779.01-1.177v-13.5C133,9.856,133,9.465,132.989,9.076Z"></path> <path id="XMLID_22_" class="cls-3" d="M132.331,23.752c0,.392,0,.775-.009,1.177,0,.328,0,.653-.005.97a13.754,13.754,0,0,1-.187,2.059,6.512,6.512,0,0,1-.6,1.854,6.314,6.314,0,0,1-1.154,1.575A6.206,6.206,0,0,1,128.8,32.53a6.69,6.69,0,0,1-1.868.615,14.555,14.555,0,0,1-2.048.18c-.329.006-.657.011-.985.011-.387,0-.778,0-1.163,0H10.265c-.393,0-.782,0-1.179,0-.326,0-.648,0-.97-.011a14.41,14.41,0,0,1-2.061-.18,6.622,6.622,0,0,1-1.861-.615,6.286,6.286,0,0,1-2.721-2.715,6.58,6.58,0,0,1-.612-1.864A13.4,13.4,0,0,1,.68,25.9c-.008-.227-.011-.456-.013-.685l0-.285V9.085l.006-.3c0-.226.005-.454.013-.685A13.394,13.394,0,0,1,.864,6.05a6.447,6.447,0,0,1,.612-1.861A6.057,6.057,0,0,1,2.622,2.617,6.249,6.249,0,0,1,4.2,1.473,6.6,6.6,0,0,1,6.055.859,14.655,14.655,0,0,1,8.109.679L9.087.665c.395,0,.785,0,1.177,0H122.735c.385,0,.776,0,1.161,0l.054,0,.925.012a14.359,14.359,0,0,1,2.054.18,6.635,6.635,0,0,1,1.868.614,6.135,6.135,0,0,1,1.573,1.145,6.3,6.3,0,0,1,1.149,1.57,6.414,6.414,0,0,1,.607,1.868,13.549,13.549,0,0,1,.187,2.044c.005.325.005.651.005.989.009.387.009.771.009,1.16v13.5Z" transform="translate(0.001 0)"></path> </g> <g id="text-Stitcher" transform="translate(-173.416 -312.424)"> <path id="Path_34" class="cls-4" d="M5.049-6.271A2.294,2.294,0,0,1,6.227-4.5H5.361a1.572,1.572,0,0,0-.655-1.031,2.254,2.254,0,0,0-1.252-.323,1.963,1.963,0,0,0-1.51.672,2.885,2.885,0,0,0-.613,2A3.2,3.2,0,0,0,1.837-1.3,1.868,1.868,0,0,0,3.485-.58a2.1,2.1,0,0,0,1.448-.508A2.125,2.125,0,0,0,5.52-2.729H3.5v-.725H6.333V0H5.77L5.559-.831a3.316,3.316,0,0,1-.787.677A2.948,2.948,0,0,1,3.309.171,2.851,2.851,0,0,1,1.336-.571a3.524,3.524,0,0,1-.9-2.558,3.668,3.668,0,0,1,.879-2.58,2.794,2.794,0,0,1,2.162-.914A3.316,3.316,0,0,1,5.049-6.271Zm5.327,1.694a1.791,1.791,0,0,1,.716.609,2.1,2.1,0,0,1,.316.831A5.434,5.434,0,0,1,11.48-2.1H8.03A2.013,2.013,0,0,0,8.368-.951a1.133,1.133,0,0,0,.98.433,1.267,1.267,0,0,0,.989-.409,1.378,1.378,0,0,0,.3-.549h.778a1.638,1.638,0,0,1-.2.578,2.055,2.055,0,0,1-.389.521A1.843,1.843,0,0,1,9.928.1a2.71,2.71,0,0,1-.646.07,1.982,1.982,0,0,1-1.49-.639,2.488,2.488,0,0,1-.611-1.791A2.705,2.705,0,0,1,7.8-4.1a2.03,2.03,0,0,1,1.608-.708A2.147,2.147,0,0,1,10.377-4.577Zm.29,1.848a2.049,2.049,0,0,0-.224-.822,1.149,1.149,0,0,0-1.085-.571,1.2,1.2,0,0,0-.914.393,1.486,1.486,0,0,0-.391,1Zm1.807-3.292h.8v1.314h.751v.646h-.751V-.989a.332.332,0,0,0,.167.33.71.71,0,0,0,.308.048l.123,0q.066,0,.154-.011V0a1.766,1.766,0,0,1-.283.057,2.7,2.7,0,0,1-.319.018.859.859,0,0,1-.751-.283,1.26,1.26,0,0,1-.2-.736V-4.061h-.637v-.646h.637Zm4.573,1.336h.8V0h-.8Zm0-1.771h.8v.9h-.8Zm2.023.435h.8v1.314h.751v.646h-.751V-.989a.332.332,0,0,0,.167.33.71.71,0,0,0,.308.048l.123,0q.066,0,.154-.011V0a1.766,1.766,0,0,1-.283.057,2.7,2.7,0,0,1-.319.018.859.859,0,0,1-.751-.283,1.26,1.26,0,0,1-.2-.736V-4.061h-.637v-.646h.637Zm7.519,4.915a2.967,2.967,0,0,0,.292-1.325A2.359,2.359,0,0,0,26.67-3.5a1.187,1.187,0,0,0-1.151-.65,1.135,1.135,0,0,0-1.055.554,2.567,2.567,0,0,0-.33,1.336,2.233,2.233,0,0,0,.33,1.252,1.161,1.161,0,0,0,1.046.5A1.091,1.091,0,0,0,26.589-1.105Zm.49-3.131a2.368,2.368,0,0,1,.628,1.784,3.061,3.061,0,0,1-.554,1.881,2,2,0,0,1-1.718.743,1.94,1.94,0,0,1-1.542-.657,2.6,2.6,0,0,1-.571-1.764,2.807,2.807,0,0,1,.6-1.89,2.021,2.021,0,0,1,1.617-.7A2.131,2.131,0,0,1,27.079-4.236Zm1.434-.47h.751v.668a2.108,2.108,0,0,1,.708-.593,1.887,1.887,0,0,1,.831-.18,1.369,1.369,0,0,1,1.354.7,2.481,2.481,0,0,1,.193,1.094V0h-.8V-2.966a1.606,1.606,0,0,0-.127-.694.773.773,0,0,0-.765-.439,1.557,1.557,0,0,0-.461.057,1.188,1.188,0,0,0-.571.387,1.164,1.164,0,0,0-.257.481,3.239,3.239,0,0,0-.059.71V0h-.791Z" transform="translate(-0.584 6.424)"></path> <path id="Path_26" class="cls-5" d="M.731-2.51H2.167a1.452,1.452,0,0,0,.7,1.058,2.791,2.791,0,0,0,1.543.391,2.447,2.447,0,0,0,1.446-.4,1.213,1.213,0,0,0,.573-1.025A1.066,1.066,0,0,0,6-3.361a3.5,3.5,0,0,0-1.355-.56l-1.2-.291a3.671,3.671,0,0,1-1.863-.925,2.308,2.308,0,0,1-.6-1.656A2.461,2.461,0,0,1,1.918-8.8a3.781,3.781,0,0,1,2.462-.76,3.661,3.661,0,0,1,2.361.75,2.551,2.551,0,0,1,1,1.928H6.334A1.5,1.5,0,0,0,5.7-7.906a2.26,2.26,0,0,0-1.342-.375A2.3,2.3,0,0,0,2.976-7.9,1.19,1.19,0,0,0,2.452-6.89a.978.978,0,0,0,.4.809,3.491,3.491,0,0,0,1.31.524l1.029.252a4.391,4.391,0,0,1,2.07.954,2.228,2.228,0,0,1,.634,1.672,2.582,2.582,0,0,1-.97,2.122A4.065,4.065,0,0,1,4.3.226a4.019,4.019,0,0,1-2.52-.744A2.6,2.6,0,0,1,.731-2.51ZM9.794-8.754h1.391v1.74h1.579v1.171H11.185v3.623a1.149,1.149,0,0,0,.239.805.994.994,0,0,0,.757.256q.194,0,.518-.032V-.032a4.278,4.278,0,0,1-.744.071A2.5,2.5,0,0,1,10.3-.4a1.858,1.858,0,0,1-.5-1.462V-5.842H8.636V-7.013H9.794ZM14.043,0V-7.046h1.385V0Zm.692-8.281a.9.9,0,0,1-.644-.243.8.8,0,0,1-.256-.6.81.81,0,0,1,.256-.608.891.891,0,0,1,.644-.246.891.891,0,0,1,.644.246.81.81,0,0,1,.256.608.8.8,0,0,1-.256.6A.9.9,0,0,1,14.735-8.281Zm2.9-.472h1.391v1.74H20.6v1.171H19.024v3.623a1.149,1.149,0,0,0,.239.805.994.994,0,0,0,.757.256q.194,0,.518-.032V-.032a4.278,4.278,0,0,1-.744.071A2.5,2.5,0,0,1,18.134-.4a1.858,1.858,0,0,1-.5-1.462V-5.842H16.475V-7.013h1.158ZM27.743-4.742H26.391a1.5,1.5,0,0,0-.56-.867,1.761,1.761,0,0,0-1.1-.33,1.657,1.657,0,0,0-1.375.634,2.769,2.769,0,0,0-.5,1.76,2.863,2.863,0,0,0,.5,1.789,1.641,1.641,0,0,0,1.375.65,1.885,1.885,0,0,0,1.1-.3,1.4,1.4,0,0,0,.566-.86h1.352a2.587,2.587,0,0,1-.932,1.744,3.157,3.157,0,0,1-2.077.657,3.1,3.1,0,0,1-2.423-.98,3.889,3.889,0,0,1-.883-2.7,3.821,3.821,0,0,1,.88-2.666,3.1,3.1,0,0,1,2.42-.97,3.1,3.1,0,0,1,2.08.673A2.684,2.684,0,0,1,27.743-4.742ZM29.062,0V-9.8H30.44v3.882h.11a1.94,1.94,0,0,1,.841-.928,2.728,2.728,0,0,1,1.378-.333,2.415,2.415,0,0,1,1.841.686,2.711,2.711,0,0,1,.65,1.941V0H33.869V-4.205q0-1.7-1.572-1.7a1.839,1.839,0,0,0-1.346.488,1.735,1.735,0,0,0-.5,1.3V0ZM39.781-6a1.718,1.718,0,0,0-1.268.5,2,2,0,0,0-.556,1.326h3.558A1.946,1.946,0,0,0,41.02-5.5,1.628,1.628,0,0,0,39.781-6Zm1.727,4.1h1.339A2.471,2.471,0,0,1,41.8-.408a3.513,3.513,0,0,1-2.009.543A3.035,3.035,0,0,1,37.41-.838,3.851,3.851,0,0,1,36.54-3.5a3.91,3.91,0,0,1,.88-2.685,3,3,0,0,1,2.368-1,2.924,2.924,0,0,1,2.306.945,3.792,3.792,0,0,1,.838,2.607v.485H37.957v.078a2.2,2.2,0,0,0,.537,1.475,1.741,1.741,0,0,0,1.339.543A1.659,1.659,0,0,0,41.508-1.9ZM44.27,0V-7.046h1.339v1.08h.1a1.5,1.5,0,0,1,.679-.86,2.222,2.222,0,0,1,1.216-.336,2.571,2.571,0,0,1,.615.058v1.372a2.533,2.533,0,0,0-.77-.084,1.836,1.836,0,0,0-1.291.459,1.548,1.548,0,0,0-.5,1.2V0Z" transform="translate(-0.584 20.424)"></path> </g> <g id="icon-Stitcher" transform="translate(-199 -313)"> <path id="XMLID_20_" class="cls-6" d="M28.349,25.313A4.765,4.765,0,0,1,26.91,27.2a4.706,4.706,0,0,1-1.585.823,9.794,9.794,0,0,1-2.719.286H12.481a9.794,9.794,0,0,1-2.719-.286,4.759,4.759,0,0,1-3.023-2.712,8.83,8.83,0,0,1-.445-3.189h0V12h0a8.808,8.808,0,0,1,.445-3.189A4.759,4.759,0,0,1,9.762,6.1a9.794,9.794,0,0,1,2.719-.286H22.607a9.794,9.794,0,0,1,2.719.286,4.759,4.759,0,0,1,3.023,2.712A8.83,8.83,0,0,1,28.794,12V22.124A8.808,8.808,0,0,1,28.349,25.313Z" transform="translate(-7.294 -5.811)"></path> <g id="shows_stitcher" transform="translate(-5 -121.789)"> <g id="Stitcher_icon" transform="translate(4 127.742)"> <path id="path16" class="cls-7" d="M69.414-304.428h.011v-6.94h-.011Z" transform="translate(-66.341 313.406)"></path> <path id="path22" class="cls-8" d="M69.991-311.367h-.333v6.94h4.618v-6.94H69.991" transform="translate(-66.574 313.406)"></path> <path id="path24" class="cls-9" d="M48.232-304.428h1v-6.94h-1Z" transform="translate(-46.154 313.406)"></path> <path id="path26" class="cls-10" d="M170.3-311.367h-2.321v6.94h6.648v-6.94H170.3" transform="translate(-160.274 313.406)"></path> <path id="path28" class="cls-3" d="M326.326-304.428h.133v-6.94h-.133Z" transform="translate(-311.186 313.406)"></path> <path id="path30" class="cls-3" d="M355.807-304.428h.133v-6.94h-.133Z" transform="translate(-339.282 313.406)"></path> <path id="path32" class="cls-3" d="M336.2-343.657h.554v-11.1H336.2Z" transform="translate(-320.6 354.758)"></path> <rect id="Rectangle_1" class="cls-7" width="2.067" height="6.952" transform="translate(0 2.032)"></rect> <rect id="Rectangle_2" class="cls-11" width="5.073" height="6.952" transform="translate(17.427 2.032)"></rect> </g> </g> </g> </g> </svg>